<svg xmlns="http://www.w3.org/2000/svg" viewBox="0 0 512 512">
  <rect width="512" height="512" rx="112" fill="#07111f"/>
  <path d="M92 338c0-17 6-33 18-46l36-76c9-19 28-31 49-31h122c21 0 40 12 49 31l36 76c12 13 18 29 18 46v54c0 11-9 20-20 20h-30c-11 0-20-9-20-20v-18H162v18c0 11-9 20-20 20h-30c-11 0-20-9-20-20v-54Z" fill="#d6a84f"/>
  <path d="M173 229c4-9 13-15 23-15h120c10 0 19 6 23 15l25 54H148l25-54Z" fill="#f8fafc"/>
  <circle cx="166" cy="335" r="28" fill="#07111f"/>
  <circle cx="346" cy="335" r="28" fill="#07111f"/>
  <path d="M208 113h96v34h-30v166h-36V147h-30v-34Z" fill="#f8fafc"/>
  <path d="M170 113h32v200h-32V113Z" fill="#f8fafc"/>
  <path d="M310 113h32v200h-32V113Z" fill="#f8fafc"/>
</svg>
